<?xml version="1.0" standalone="no"?><!-- Generator: Adobe Fireworks CS6, Export SVG Extension by Aaron Beall (http://fireworks.abeall.com) . Version: 0.6.1  --><!DOCTYPE svg PUBLIC "-//W3C//DTD SVG 1.1//EN" "http://www.w3.org/Graphics/SVG/1.1/DTD/svg11.dtd"><svg id="Untitled-Page%201" viewBox="0 0 100 100" style="background-color:#ffffff00" version="1.1"	xmlns="http://www.w3.org/2000/svg" xmlns:xlink="http://www.w3.org/1999/xlink" xml:space="preserve"	x="0px" y="0px" width="100px" height="100px">	<path d="M 90 55.2298 C 90 57.1361 90 59.0424 90 60.949 C 89.9611 61.014 89.8954 61.076 89.8872 61.1448 C 89.7779 62.0606 89.6807 62.9779 89.5727 63.8939 C 89.3393 65.8744 88.8411 67.7957 88.2436 69.6946 C 87.3151 72.6454 86.0516 75.4449 84.4277 78.0858 C 82.9785 80.4426 81.3352 82.6533 79.406 84.6442 C 78.5538 85.5236 77.6627 86.3705 76.7423 87.1802 C 75.8442 87.9701 74.9138 88.7299 73.9499 89.4394 C 70.7433 91.7997 67.2363 93.6176 63.4655 94.9066 C 60.6726 95.8614 57.801 96.5155 54.8491 96.7842 C 54.3752 96.8275 53.9065 96.9266 53.4355 97 C 51.4785 97 49.5215 97 47.5645 97 C 47.4989 96.9613 47.4364 96.8963 47.3671 96.8881 C 46.4434 96.7798 45.5182 96.6838 44.5946 96.5763 C 42.3785 96.3182 40.2234 95.7795 38.111 95.0913 C 35.3798 94.2015 32.7677 93.036 30.2915 91.5777 C 27.9292 90.1864 25.7029 88.601 23.7162 86.7268 C 22.2858 85.3774 20.964 83.9067 19.6704 82.4245 C 17.9407 80.4424 16.5522 78.2207 15.3296 75.9011 C 14.116 73.5986 13.1582 71.1928 12.4476 68.6901 C 11.8665 66.6434 11.4408 64.5687 11.2187 62.4529 C 11.1659 61.9495 11.0739 61.4502 11 60.949 C 11 59.0424 11 57.1361 11 55.2298 C 11.039 55.1648 11.1047 55.1027 11.1129 55.0341 C 11.222 54.1186 11.3192 53.2014 11.4273 52.2859 C 11.6609 50.3057 12.1626 48.3863 12.7551 46.4864 C 13.6811 43.517 14.9591 40.7026 16.5923 38.054 C 18.1508 35.5264 19.9478 33.1759 22.053 31.0622 C 23.5613 29.548 25.1658 28.1515 26.8858 26.8748 C 29.9757 24.5812 33.3447 22.8145 36.96 21.4981 C 39.3676 20.6215 41.8497 20.0262 44.3748 19.5919 C 44.5636 19.5594 44.7993 19.3816 44.8788 19.2101 C 45.207 18.5017 45.6194 17.8554 46.2546 17.3974 C 46.8669 16.9557 47.175 16.4487 47.0821 15.663 C 47.0029 14.9917 47.119 14.2989 47.0543 13.6246 C 46.9334 12.3651 48.1029 10.8464 49.3057 10.5336 C 49.6602 10.4413 49.752 10.2833 49.7504 9.9421 C 49.7383 7.3055 49.733 4.6687 49.7567 2.0322 C 49.7598 1.6874 49.9389 1.344 50.0365 1 C 50.3112 1 50.5858 1 50.8605 1 C 50.9581 1.2654 51.1381 1.5302 51.1404 1.7964 C 51.1621 4.28 51.1533 6.7638 51.1533 9.2476 C 51.1533 9.6197 51.1533 9.9918 51.1533 10.3458 C 51.3035 10.4075 51.4083 10.4671 51.5209 10.4944 C 53.0367 10.8602 54.0264 12.5185 53.9439 13.8333 C 53.8919 14.6637 53.92 15.5003 53.9448 16.3332 C 53.9507 16.5284 54.0321 16.7949 54.1751 16.9007 C 55.1341 17.6112 55.8161 18.5256 56.2161 19.4421 C 58.2016 19.9172 60.0818 20.3015 61.9225 20.8228 C 64.9161 21.6707 67.7486 22.913 70.4447 24.4648 C 72.9403 25.9013 75.254 27.5859 77.3674 29.5229 C 79.1933 31.1966 80.8499 33.0279 82.3381 35.0187 C 84.709 38.1904 86.5608 41.6234 87.8707 45.3426 C 88.8455 48.1105 89.5241 50.9498 89.7836 53.8794 C 89.8238 54.3322 89.9263 54.7798 90 55.2298 ZM 56.7156 21.0732 C 56.7156 21.9198 56.7045 22.661 56.7252 23.4013 C 56.7293 23.5478 56.8257 23.7194 56.9314 23.8312 C 58.0652 25.0294 58.856 26.4016 59.1946 28.0246 C 59.4096 29.0547 59.2476 30.2317 60.3184 30.9485 C 60.4967 31.0679 60.6348 31.257 60.7667 31.4322 C 62.5484 33.7989 63.5288 36.4337 63.5165 39.4135 C 63.5021 42.9022 63.5131 46.3909 63.5131 49.8797 C 63.5131 54.9679 63.5112 60.0563 63.5201 65.1448 C 63.5205 65.3444 63.557 65.6281 63.689 65.7306 C 64.8793 66.6553 65.6846 67.8302 66.0443 69.2787 C 66.1403 69.6657 66.2886 69.7569 66.6559 69.7549 C 68.9729 69.7413 71.2899 69.7465 73.6069 69.7489 C 74.2499 69.7497 74.4306 69.9296 74.4307 70.5499 C 74.4313 73.6812 74.431 76.8124 74.431 79.9437 C 74.431 80.1416 74.431 80.3394 74.431 80.5483 C 74.5817 80.5601 74.6675 80.5822 74.7482 80.5704 C 75.6456 80.44 75.8983 80.8588 75.8792 81.7305 C 75.8539 82.8872 75.873 84.0448 75.873 85.2021 C 75.873 85.4458 75.873 85.6898 75.873 85.9981 C 85.0355 78.0077 89.5436 65.9674 88.4118 55.0094 C 88.2165 55.0094 88.015 55.0094 87.8135 55.0094 C 82.4929 55.0094 77.172 54.9773 71.8518 55.0242 C 69.4805 55.0449 67.4233 53.0935 67.54 50.7865 C 67.6292 49.0238 68.8518 47.3407 70.6295 46.9744 C 71.1024 46.8769 71.5932 46.8651 72.0417 46.8176 C 72.0963 46.4868 72.1523 46.1901 72.1935 45.8914 C 72.4195 44.2561 74.1674 42.5381 75.8557 42.3643 C 75.9844 42.351 76.1352 42.1776 76.2024 42.0427 C 76.2812 41.8845 76.2882 41.6879 76.3117 41.5061 C 76.6743 38.7098 78.1127 36.5761 80.4297 34.9268 C 74.2435 27.4047 66.3549 22.7619 56.7156 21.0732 ZM 29.415 54.9675 C 31.3194 55.6186 32.5491 57.2251 32.431 59.3045 C 32.3145 61.3547 30.4523 63.0825 28.4349 63.0799 C 23.4056 63.0729 18.3763 63.0775 13.347 63.0775 C 13.1524 63.0775 12.9578 63.0775 12.7539 63.0775 C 14.3357 74.9757 21.319 82.7099 25.1271 85.9624 C 25.1271 85.7546 25.127 85.5916 25.127 85.4287 C 25.1271 84.1521 25.1269 82.8757 25.1271 81.5991 C 25.1272 80.7085 25.2393 80.598 26.1549 80.5712 C 26.2505 80.5684 26.3454 80.5423 26.466 80.5231 C 26.466 80.3085 26.466 80.123 26.466 79.9377 C 26.466 76.9253 26.466 73.9128 26.466 70.9002 C 26.4661 69.9498 26.6696 69.7481 27.629 69.7479 C 29.9962 69.7479 32.3634 69.7479 34.7351 69.7479 C 34.7965 69.6043 34.8705 69.4882 34.8962 69.3623 C 35.1765 67.9942 35.875 66.862 36.936 65.9704 C 37.2888 65.674 37.3945 65.3901 37.3938 64.9513 C 37.3803 56.7819 37.3715 48.6124 37.3976 40.4431 C 37.4014 39.2536 37.5121 38.0521 37.7071 36.878 C 38.105 34.4831 39.2117 32.4048 40.9188 30.676 C 41.3792 30.2098 41.5569 29.7163 41.6028 29.1292 C 41.7501 27.2449 42.4606 25.6041 43.7167 24.1866 C 43.9259 23.9506 44.2289 23.6919 44.2555 23.4212 C 44.3295 22.6663 44.2813 21.8997 44.2813 21.0713 C 34.8117 22.7436 27.0574 27.2182 20.9512 34.4803 C 18.6284 37.2428 16.7637 40.2987 15.334 43.7628 C 19.2447 42.0473 22.8664 42.3141 26.0672 44.8684 C 29.299 47.4474 30.3097 50.9235 29.415 54.9675 ZM 62.1035 64.6628 C 62.1035 64.5697 62.1035 64.3664 62.1035 64.1634 C 62.1035 55.9439 62.1139 47.7246 62.0893 39.5052 C 62.0864 38.5726 61.9954 37.6125 61.759 36.7132 C 60.8621 33.3 58.807 30.7487 55.633 29.1535 C 53.3688 28.0155 50.9639 27.6777 48.4367 28.1351 C 45.99 28.5779 43.8921 29.6672 42.1885 31.4207 C 41.4026 32.2295 40.7877 33.2211 40.1937 34.1892 C 39.3558 35.5546 38.9224 37.0942 38.9151 38.6739 C 38.8757 47.1824 38.8963 55.6912 38.8977 64.1999 C 38.8977 64.3752 38.9157 64.5507 38.9201 64.6327 C 40.2866 64.4961 41.5927 64.3654 42.9458 64.2302 C 42.9458 64.0525 42.9458 63.8349 42.9458 63.617 C 42.9458 55.4488 42.9418 47.2805 42.9484 39.1121 C 42.9503 36.742 44.0154 34.8327 45.8631 33.4513 C 48.1125 31.7697 50.6578 31.4609 53.315 32.4671 C 56.1867 33.5545 58.0285 36.2464 58.0416 39.1886 C 58.0778 47.3398 58.0542 55.4913 58.0542 63.6426 C 58.0542 63.858 58.0542 64.0732 58.0542 64.2232 C 59.4433 64.374 60.7644 64.5174 62.1035 64.6628 ZM 27.8964 80.5389 C 30.1911 80.5389 32.4284 80.5389 34.676 80.5389 C 34.676 77.4013 34.676 74.2985 34.676 71.1892 C 32.3964 71.1892 30.1469 71.1892 27.8964 71.1892 C 27.8964 74.3237 27.8964 77.4146 27.8964 80.5389 ZM 66.3199 80.5353 C 68.5827 80.5353 70.7856 80.5353 72.9879 80.5353 C 72.9879 77.3941 72.9879 74.2914 72.9879 71.1749 C 70.7514 71.1749 68.5485 71.1749 66.3199 71.1749 C 66.3199 74.3067 66.3199 77.4095 66.3199 80.5353 ZM 55.1618 22.3944 C 55.3814 20.5608 54.7044 19.1367 53.3254 18.1105 C 51.7388 16.9297 49.9618 16.7697 48.1987 17.7397 C 46.3788 18.7408 45.6611 20.3759 45.695 22.4486 C 48.8479 20.6875 51.9856 20.6679 55.1618 22.3944 Z" fill="#000000"/>	<path d="M 30.3762 77.7878 C 30.7222 77.8076 30.9807 78.0214 30.9888 78.4544 C 30.9967 78.8872 30.7364 79.1218 30.323 79.1567 C 29.9553 79.1881 29.6286 78.8545 29.6191 78.4798 C 29.6094 78.0962 29.9049 77.7951 30.3762 77.7878 Z" fill="#000000"/>	<path d="M 69.906 78.4663 C 69.9339 78.0532 70.1451 77.8059 70.5738 77.7919 C 71.0051 77.7779 71.2384 78.0275 71.2876 78.4328 C 71.3326 78.803 70.9644 79.1836 70.5889 79.1572 C 70.1809 79.1283 69.9383 78.899 69.906 78.4663 Z" fill="#000000"/></svg>