<?xml version="1.0" standalone="no"?><!-- Generator: Adobe Fireworks CS6, Export SVG Extension by Aaron Beall (http://fireworks.abeall.com) . Version: 0.6.1  --><!DOCTYPE svg PUBLIC "-//W3C//DTD SVG 1.1//EN" "http://www.w3.org/Graphics/SVG/1.1/DTD/svg11.dtd"><svg id="environment" viewBox="0 0 261 262" style="background-color:#ffffff00" version="1.1"	xmlns="http://www.w3.org/2000/svg" xmlns:xlink="http://www.w3.org/1999/xlink" xml:space="preserve"	x="0px" y="0px" width="100px" height="100px">	<path d="M 12.4111 127.9736 C 17.7134 127.9736 22.2891 127.8525 26.8564 127.9966 C 40.3813 128.4233 53.7573 129.8926 66.4224 135.0488 C 85.8047 142.9404 93.5063 157.6182 88.9653 177.7266 C 88.7251 178.7891 88.208 179.7891 87.6099 181.377 C 78.9224 171.5742 69.8687 162.957 58.7593 156.876 C 59.2847 156.3691 59.8105 155.8633 60.3359 155.3574 C 69.3809 164.6504 78.4258 173.9443 87.4712 183.2383 C 87.0249 183.7441 86.5786 184.252 86.1328 184.7588 C 86.8491 184.0742 87.5659 183.3906 88.9556 182.0635 C 94.0654 190.8066 98.9028 199.084 103.2349 206.4951 C 105.7134 198.7832 107.6279 189.6934 111.5298 181.5566 C 115.5024 173.2734 121.4316 165.9297 126.7402 157.8145 C 129.6113 160.3184 131.5879 162.041 132.5947 162.918 C 139.3096 156.7793 145.9248 150.7344 152.5381 144.6855 C 153.2754 144.0107 154.0117 143.334 154.7305 142.6406 C 160.0801 137.4824 164.9355 133.6099 173.9453 135.4258 C 185.4229 137.7402 196.8584 133.5 207.8115 129.3145 C 195.7891 131.0366 183.8359 131.7837 171.4531 128.4214 C 178.7051 122.3364 185.8457 116.9209 192.2695 110.7583 C 196.8125 106.4004 201.2129 103.3096 207.8369 102.4878 C 215.0889 101.5879 221.3535 97.4126 227.7012 91.9639 C 219.9375 93.731 213.1602 95.2734 206.3828 96.8159 C 206.1318 96.4165 205.8809 96.0171 205.6289 95.6172 C 213.2764 83.5464 218.6367 70.6226 220.7578 56.5049 C 220.9727 55.0703 220.9121 53.5942 220.9678 52.3745 C 214.1758 65.4004 207.332 78.5278 200.4883 91.6553 C 199.8438 91.4512 199.1982 91.2466 198.5537 91.0425 C 198.5537 83.0679 198.5537 75.0928 198.5537 66.3525 C 193.4063 76.0503 190.7969 85.6182 192.5352 95.9424 C 193.0371 98.9248 192.8379 101.0264 190.4707 102.9478 C 182.3848 109.5093 174.3535 116.1387 165.5801 123.3354 C 161.6367 108.9067 162.0449 95.7612 163.9805 82.1812 C 158.0078 91.9292 155.1367 113.7754 158.084 124.2446 C 158.4922 125.6987 158.5391 128.1011 157.6699 128.9292 C 152.6191 133.7476 147.0488 138.0254 142.0322 142.877 C 137.0195 147.7256 132.4512 153.0332 127.709 158.1172 C 111.2256 146.4834 104.7759 127.6934 111.4126 107.6333 C 119.1064 84.3779 133.8594 67.1094 157.127 57.9453 C 161.6094 56.1797 166.0781 54.3413 170.6621 52.874 C 189.6885 46.7832 204.1914 34.8911 215.2676 18.5132 C 218.8936 13.1509 222.5371 7.8008 226.4023 2.1074 C 234.6318 14.1279 240.1328 27.0015 243.4238 40.7915 C 251.7627 75.7329 249.293 109.6699 231.708 141.4043 C 226.6475 150.5371 219.543 159.0693 211.7412 166.0508 C 191.2129 184.4199 167.3486 185.7656 143.6865 171.2578 C 140.4385 169.2656 137.3486 167.0166 133.8008 164.627 C 126.8945 171.1699 122.1826 179.1035 119.0762 187.918 C 111.6191 209.0762 109.4595 230.6426 115.062 252.6426 C 116.0586 256.5547 114.0688 258.9102 110.7085 259.7148 C 107.2427 260.543 104.5088 259.3379 104.1909 255.0508 C 103.4531 245.1016 103.0444 235.0996 101.6992 225.2295 C 99.7939 211.248 94.4326 198.4404 86.8491 186.2441 C 86.2642 186.8926 85.9014 187.1719 85.6968 187.54 C 78.2236 200.9922 67.3979 204.123 53.9917 196.3672 C 44.1699 190.6855 37.4585 182.2705 32.8462 171.8711 C 26.7954 158.2266 20.2305 144.8115 13.8896 131.2959 C 13.5557 130.584 13.249 129.8594 12.4111 127.9736 Z" fill="#000000"/></svg>