<?xml version="1.0" standalone="no"?><!-- Generator: Adobe Fireworks CS6, Export SVG Extension by Aaron Beall (http://fireworks.abeall.com) . Version: 0.6.1  --><!DOCTYPE svg PUBLIC "-//W3C//DTD SVG 1.1//EN" "http://www.w3.org/Graphics/SVG/1.1/DTD/svg11.dtd"><svg id="Untitled-Page%201" viewBox="0 0 261 262" style="background-color:#ffffff00" version="1.1"	xmlns="http://www.w3.org/2000/svg" xmlns:xlink="http://www.w3.org/1999/xlink" xml:space="preserve"	x="0px" y="0px" width="100px" height="100px">	<path d="M 160.9199 200.6045 C 140.8408 204.2246 121.4043 207.7285 101.0806 211.3926 C 101.0806 205.2266 100.9531 199.6465 101.1343 194.0762 C 101.2256 191.2793 100.376 189.6914 97.8267 188.1914 C 72.5532 173.3281 60.2119 146.5898 65.0947 117.7627 C 69.5376 91.5352 90.8086 70.1563 118.168 64.4204 C 155.0088 56.6973 192.293 82.9878 197.0508 120.374 C 200.7949 149.7998 189.4746 172.2871 164.4785 187.9492 C 161.9316 189.5459 160.4717 191.0742 160.873 194.1895 C 161.123 196.1357 160.9199 198.1406 160.9199 200.6045 Z" fill="#000000"/>	<path d="M 159.4531 233.7334 C 157.2461 236.7305 155.5215 240.3301 152.7139 242.5762 C 148.875 245.6504 147.4902 249.0625 148.1699 253.6934 C 148.3359 254.8271 148.1934 256.0059 148.1934 257.5381 C 136.7637 257.5381 125.5625 257.5381 114.0874 257.5381 C 112.9326 252.2168 116.2593 245.4033 108.0737 242.4531 C 108.4087 242.0957 108.7432 241.7383 109.0776 241.3809 C 125.5762 238.4141 142.0742 235.4482 158.5732 232.4824 C 158.8672 232.8994 159.1602 233.3164 159.4531 233.7334 Z" fill="#000000"/>	<path d="M 101.688 224.2832 C 100.1025 218.541 101.5117 216.4609 106.8765 215.6289 C 123.9473 212.9805 140.9121 209.6533 157.9199 206.5996 C 158.709 206.457 159.5166 206.418 160.6289 206.2969 C 160.6289 208.7734 160.6289 211.0205 160.6289 213.6523 C 140.9346 217.2051 121.3823 220.7314 101.688 224.2832 Z" fill="#000000"/>	<path d="M 104.5767 236.8135 C 103.6328 234.5879 102.7534 232.5156 101.5654 229.7168 C 121.4009 226.1328 140.7324 222.6396 160.3984 219.0859 C 160.9297 222.8848 162.543 226.4209 156.7695 227.416 C 139.4717 230.3945 122.2153 233.6191 104.5767 236.8135 Z" fill="#000000"/>	<!-- Lights -->	<path d="M 216.5732 114.9014 C 215.9297 112.1494 215.376 109.7861 214.6641 106.748 C 228.8066 103.4897 242.6055 100.3105 256.8633 97.0254 C 257.5635 99.6768 258.2188 102.1606 259.0225 105.2041 C 244.7676 108.4604 230.8086 111.6494 216.5732 114.9014 Z" fill="#000000"/>	<path d="M 70.6235 14.6846 C 73.2158 13.394 75.3911 12.3105 78.1924 10.916 C 84.4658 23.8887 90.6289 36.6318 97.0415 49.8916 C 94.7285 51.1084 92.4595 52.3022 89.5781 53.8184 C 83.2686 40.791 77.1099 28.0762 70.6235 14.6846 Z" fill="#000000"/>	<path d="M 191.4219 14.4575 C 184.9805 27.7969 178.877 40.4365 172.5117 53.6187 C 170.0264 52.4878 167.7051 51.4312 164.8584 50.1357 C 171.0254 37.3032 177.0889 24.6826 183.5156 11.3076 C 185.9248 12.2676 188.3457 13.2319 191.4219 14.4575 Z" fill="#000000"/>	<path d="M 5.0542 97.0313 C 19.2656 100.291 33.0596 103.4546 47.229 106.7051 C 46.5996 109.5869 46.084 111.9497 45.4424 114.8862 C 31.2632 111.6626 17.3242 108.4941 2.9956 105.2368 C 3.7241 102.3335 4.3477 99.8472 5.0542 97.0313 Z" fill="#000000"/>	<path d="M 235.417 52.2158 C 224.0742 61.2661 212.9775 70.1196 201.5332 79.251 C 199.748 77.0347 198.1455 75.0439 196.2324 72.6675 C 207.6582 63.5527 218.748 54.7051 230.2031 45.5664 C 231.9785 47.8296 233.5605 49.8481 235.417 52.2158 Z" fill="#000000"/>	<path d="M 65.7026 72.6558 C 63.8276 75.0122 62.2275 77.0234 60.4312 79.2817 C 49.019 70.168 37.9282 61.3105 26.6104 52.2725 C 28.3257 50.021 29.8086 48.0757 31.7119 45.5786 C 43.0205 54.5869 54.1948 63.4883 65.7026 72.6558 Z" fill="#000000"/>	<path d="M 127.1367 0.0283 C 129.8369 0.0283 132.1211 0.0283 134.7578 0.0283 C 134.7578 14.3555 134.7578 28.5522 134.7578 43.043 C 132.1934 43.043 129.8037 43.043 127.1367 43.043 C 127.1367 28.6968 127.1367 14.6211 127.1367 0.0283 Z" fill="#000000"/></svg>