<?xml version="1.0" standalone="no"?><!-- Generator: Adobe Fireworks CS6, Export SVG Extension by Aaron Beall (http://fireworks.abeall.com) . Version: 0.6.1  --><!DOCTYPE svg PUBLIC "-//W3C//DTD SVG 1.1//EN" "http://www.w3.org/Graphics/SVG/1.1/DTD/svg11.dtd"><svg id="Untitled-Page%201" viewBox="0 0 100 100" style="background-color:#ffffff00" version="1.1"	xmlns="http://www.w3.org/2000/svg" xmlns:xlink="http://www.w3.org/1999/xlink" xml:space="preserve"	x="0px" y="0px" width="100px" height="100px">	<path d="M 8.0983 35.1894 C 15.788 32.5402 23.5035 30.2428 28.9666 23.7701 C 34.2662 17.4916 37.6194 10.3382 39.1449 2 C 40.8801 4.1419 42.5178 6.1483 44.1397 8.1675 C 55.4875 22.295 66.813 36.4404 78.2104 50.5278 C 79.2197 51.7752 79.2361 52.7884 78.6585 54.1348 C 74.1408 64.6685 66.8669 72.6711 56.748 78.0439 C 54.0483 79.477 51.25 80.7228 48.5075 82.0758 C 47.5333 82.5559 46.882 82.4574 46.114 81.5227 C 33.7254 66.4454 21.2892 51.4076 8.8696 36.3564 C 8.6006 36.0303 8.399 35.6486 8.0983 35.1894 Z" fill="#000000"/>	<path d="M 7.424 37.0757 C 11.7138 42.2707 16.0042 47.4653 20.2934 52.6608 C 28.5616 62.6764 36.8349 72.6881 45.0809 82.7224 C 45.5116 83.2466 45.9596 83.9609 45.97 84.5941 C 46.0458 89.16 46.0107 93.7279 46.0107 98.7698 C 45.4008 98.1235 45.0314 97.7804 44.7169 97.3925 C 32.3985 82.1929 20.0803 66.9928 7.7915 51.769 C 7.3749 51.2529 7.0523 50.4944 7.042 49.8433 C 6.9755 45.6238 7.0079 41.4028 7.0079 37.1822 C 7.1466 37.1467 7.2854 37.1112 7.424 37.0757 Z" fill="#000000"/>	<path d="M 47.716 86.1574 C 47.1945 84.7118 47.6318 84.0407 49.0191 83.4863 C 60.6318 78.8478 70.5305 72.0069 76.9709 60.9633 C 78.4189 58.4797 79.4257 55.7397 80.6557 53.1272 C 81.147 52.0836 80.8544 51.3186 80.1409 50.4349 C 69.4201 37.1638 58.7399 23.8602 48.0522 10.5627 C 47.9489 10.4341 47.8734 10.2832 47.7539 10.0935 C 48.5069 9.1892 49.2646 8.2789 50.1298 7.2398 C 52.8242 10.3499 55.4679 13.4193 58.13 16.4722 C 68.6454 28.5305 79.1609 40.5889 89.6993 52.6271 C 90.3837 53.4091 90.8044 53.952 90.0235 55.0055 C 79.3953 69.3486 66.0664 80.0693 48.9933 85.8068 C 48.5853 85.9438 48.162 86.036 47.716 86.1574 Z" fill="#000000"/>	<path d="M 90.6135 76.3092 C 90.6135 78.6574 90.6884 80.7597 90.5498 82.8476 C 90.5223 83.261 89.7365 83.7849 89.1991 83.9802 C 78.498 87.8662 67.7812 91.711 57.0683 95.5647 C 53.9905 96.6717 50.9133 97.7801 47.5249 99 C 47.5249 97.3477 47.4352 95.8714 47.5869 94.42 C 47.6258 94.0475 48.3804 93.6249 48.8844 93.445 C 57.2523 90.4584 65.7167 87.7207 73.9793 84.4688 C 79.0779 82.4623 83.8731 79.685 88.803 77.2505 C 89.3318 76.9895 89.8503 76.7069 90.6135 76.3092 Z" fill="#000000"/>	<path d="M 47.706 89.1813 C 47.1804 87.8391 48.0589 87.7076 48.8563 87.3639 C 54.1104 85.1003 59.4463 82.9941 64.5589 80.4425 C 71.283 77.0863 76.4495 71.6605 81.8105 66.5435 C 83.7391 64.7028 85.5656 62.7556 87.5491 60.7449 C 89.4181 62.4256 91.1421 63.9755 93 65.6467 C 80.0657 77.7495 64.5327 84.5879 47.706 89.1813 Z" fill="#000000"/>	<path d="M 47.404 91.4919 C 47.892 91.1848 48.3429 90.7707 48.8736 90.5876 C 54.2807 88.7205 59.7568 87.0384 65.1044 85.016 C 73.119 81.9852 80.3811 77.5442 87.298 72.5233 C 87.8302 72.1367 88.363 71.7501 88.9926 71.2932 C 89.6427 72.0098 90.2304 72.6577 90.8861 73.3805 C 77.6661 82.4251 63.0128 87.8839 47.7859 92.0194 C 47.6586 91.8435 47.5313 91.6675 47.404 91.4919 Z" fill="#000000"/></svg>