<?xml version="1.0" standalone="no"?><!-- Generator: Adobe Fireworks CS6, Export SVG Extension by Aaron Beall (http://fireworks.abeall.com) . Version: 0.6.1  --><!DOCTYPE svg PUBLIC "-//W3C//DTD SVG 1.1//EN" "http://www.w3.org/Graphics/SVG/1.1/DTD/svg11.dtd"><svg id="Untitled-Page%201" viewBox="0 0 100 100" style="background-color:#ffffff00" version="1.1"	xmlns="http://www.w3.org/2000/svg" xmlns:xlink="http://www.w3.org/1999/xlink" xml:space="preserve"	x="0px" y="0px" width="100px" height="100px">	<g id="Layer%203">		<path d="M 1 35.7752 C 1.1414 34.7188 1.3511 33.6662 1.4113 32.6052 C 1.5823 29.5957 3.2853 27.7543 5.898 26.5599 C 6.352 26.3524 6.8159 26.1517 7.2339 25.8838 C 8.4062 25.1324 8.5174 23.9219 7.5064 22.9646 C 5.2161 20.7959 4.6392 18.0586 5.0113 15.092 C 5.2029 13.5646 6.2633 12.5525 7.717 12.0467 C 9.1452 11.5497 10.5164 11.7633 11.6147 12.8101 C 12.9328 14.0664 13.8601 15.5759 14.0382 17.4471 C 14.1245 18.3542 13.9192 19.2098 13.6055 20.056 C 13.0444 21.5695 13.5503 23.2351 14.8855 24.0452 C 15.3869 24.3494 16.0027 24.5233 16.5891 24.6223 C 20.3321 25.2547 22.9963 27.2468 24.5756 30.7038 C 25.1069 31.8668 25.7634 32.973 26.3927 34.1619 C 26.0964 34.4137 25.8209 34.7381 25.472 34.9296 C 23.6169 35.9475 23.0767 37.5214 23.477 39.4966 C 23.6358 40.2795 23.8904 41.0435 24.0399 41.8279 C 24.1383 42.3441 24.1893 42.8854 24.1546 43.4083 C 23.8951 47.3197 23.609 51.2293 23.3312 55.1395 C 23.2631 56.0994 23.2116 57.0606 23.1234 58.0188 C 22.9474 59.9336 23.1522 61.8211 23.447 63.7106 C 23.8003 65.9745 23.8586 68.2479 23.5574 70.5279 C 23.2589 72.7877 23.9094 74.8594 24.8805 76.863 C 25.6408 78.4319 26.4139 79.9957 27.1212 81.5882 C 27.3699 82.1481 27.4996 82.7795 27.571 83.3912 C 27.618 83.7946 27.5642 84.272 27.3819 84.6281 C 26.7369 85.8877 26.7165 87.1575 27.159 88.4604 C 27.4563 89.336 27.7686 90.2075 28.1036 91.0693 C 28.4417 91.9395 28.209 92.6214 27.6027 93.3096 C 26.313 94.7734 24.7347 95.4378 22.792 95.2763 C 22.2217 95.2286 21.6477 95.2234 21.078 95.1712 C 20.5677 95.1246 20.0363 94.9004 19.9642 94.4094 C 19.9105 94.0432 20.2275 93.6105 20.4199 93.2275 C 20.4939 93.0802 20.6865 92.9954 20.8143 92.8711 C 21.4298 92.2719 21.7159 91.5509 21.578 90.6936 C 21.3899 89.5232 21.6448 88.5828 22.815 88.0213 C 23.0592 87.904 23.2084 87.5902 23.4544 87.3057 C 22.0386 86.2832 20.6852 85.3058 19.2786 84.29 C 19.8041 84.1504 19.7188 83.8024 19.6638 83.4491 C 19.3286 81.2984 18.4155 79.3338 17.6466 77.3281 C 16.1118 73.3242 14.5185 69.3425 12.9487 65.3519 C 12.8971 65.2207 12.839 65.0922 12.6486 64.9381 C 12.381 65.9198 12.0774 66.8934 11.8524 67.8848 C 11.179 70.852 11.3439 73.8317 11.7902 76.8096 C 11.9062 77.5838 12.0533 78.3535 12.17 79.1278 C 12.2242 79.487 12.3495 79.7178 12.74 79.8534 C 13.7815 80.2149 13.9676 80.5991 13.6365 81.6395 C 13.3512 82.5365 12.9437 83.4004 12.7225 84.3107 C 12.373 85.7485 12.7323 87.172 12.9638 88.5977 C 13.1516 89.7545 13.2736 90.926 13.3396 92.0958 C 13.3605 92.4668 13.1339 92.8652 12.9696 93.2282 C 12.8617 93.4665 12.6648 93.6656 12.5037 93.8794 C 11.7715 94.8509 10.9219 95.6697 9.7003 96 C 9.3423 96 8.9843 96 8.6262 96 C 8.3066 95.8928 7.9824 95.798 7.6684 95.6764 C 6.5566 95.2462 6.4062 94.8476 6.8904 93.7663 C 7.6248 92.1263 8.3935 90.4987 9.0442 88.8258 C 9.3178 88.1228 9.3274 87.3178 9.4576 86.5556 C 8.1383 86.2575 7.1925 85.6478 6.5394 84.6506 C 6.3221 84.3186 6.0991 83.8937 6.1224 83.5266 C 6.1518 83.0628 5.993 82.7396 5.7517 82.4132 C 5.2313 81.7091 4.9157 80.9415 4.8401 80.058 C 4.7736 79.2793 4.6069 78.5098 4.5104 77.7332 C 4.0518 74.0415 3.6027 70.3487 3.1489 66.6565 C 2.8214 63.9922 2.6331 61.3056 1.7954 58.7258 C 1.5261 57.8966 1.3478 57.0552 1.4568 56.1564 C 1.6603 54.4777 1.801 52.7912 1.9612 51.1072 C 2.275 47.8103 2.5894 44.5134 2.8924 41.2154 C 2.9963 40.0845 3.0671 38.9506 3.1606 37.7185 C 2.1896 37.797 1.5363 37.3171 1 36.631 C 1 36.3458 1 36.0605 1 35.7752 ZM 20.2967 38.4891 C 20.2139 38.4758 20.1312 38.4624 20.0485 38.449 C 20.0014 38.7546 19.9054 39.0617 19.9146 39.3656 C 20.0497 43.7954 20.1894 48.2251 20.3613 52.6535 C 20.3761 53.0346 20.6113 53.4134 20.7791 53.7771 C 20.8157 53.8565 21.0238 53.9263 21.1136 53.8937 C 21.2065 53.8597 21.2738 53.7025 21.3103 53.5862 C 21.3404 53.4901 21.3118 53.3747 21.3047 53.2682 C 21.0054 48.723 20.7065 44.1778 20.4044 39.6328 C 20.379 39.2508 20.3331 38.8703 20.2967 38.4891 Z" fill="#000000"/>		<path d="M 44.5016 7 C 44.8257 7.0845 45.1527 7.1595 45.4735 7.2552 C 47.8104 7.9522 49.2279 10.4171 48.4962 12.8557 C 47.9024 14.8346 47.3791 16.8571 46.2182 18.639 C 45.3274 20.0063 45.4316 20.8731 46.5441 22.0522 C 47.0356 22.5731 47.6627 22.9764 48.2609 23.3855 C 48.7747 23.737 49.3524 23.9949 49.8712 24.34 C 50.975 25.0744 51.5648 26.1346 51.578 27.4444 C 51.5908 28.7243 51.4622 30.0051 51.4541 31.2858 C 51.4483 32.1868 51.4338 33.1099 51.6116 33.9851 C 51.9511 35.6558 52.0093 37.2961 51.6119 38.9598 C 51.3891 39.8932 51.2707 40.8515 51.0471 41.7847 C 50.9284 42.2802 50.7716 42.8065 50.4832 43.2146 C 49.403 44.7434 49.0725 46.4997 48.8019 48.2832 C 48.6148 49.5166 48.4094 50.7419 47.855 51.8817 C 47.7166 52.1659 47.5964 52.4864 47.5785 52.7964 C 47.5086 54.0001 46.985 55.0263 46.3844 56.0281 C 45.8096 56.9867 45.7803 58.0679 45.7014 59.1284 C 45.5654 60.9584 45.5008 62.7936 45.3603 64.6232 C 45.1857 66.8961 44.959 69.1649 44.7648 71.4363 C 44.4563 75.0468 44.236 78.6546 45.1356 82.225 C 45.6013 84.0738 46.3498 85.7972 47.4558 87.3535 C 48.3602 88.6263 48.8146 90.0911 49.3059 91.5373 C 49.5409 92.2293 49.2403 92.6945 48.5039 92.8243 C 47.124 93.0677 45.933 92.6663 45.0875 91.5381 C 44.7337 91.066 44.5155 90.4785 44.3045 89.9177 C 43.892 88.821 43.539 87.7022 43.1291 86.6047 C 43.0795 86.4718 42.8175 86.325 42.6764 86.3444 C 42.5281 86.3651 42.3059 86.5675 42.2911 86.7088 C 42.2248 87.3414 42.1545 87.9859 42.2073 88.6161 C 42.3589 90.4279 40.7223 92.0182 39.0167 91.6658 C 38.2886 91.5154 37.7475 90.9164 37.8477 90.1784 C 38.1751 87.7676 38.3359 85.3135 39.3335 83.0448 C 40.3153 80.812 40.441 78.5167 40.046 76.1399 C 39.5328 73.0514 39.0474 69.9573 38.6207 66.856 C 38.2839 64.4078 37.4928 62.1221 36.3823 59.9334 C 35.9636 59.1079 35.4751 58.3178 35.0553 57.4929 C 34.8158 57.0222 34.4585 56.7857 33.964 56.6407 C 33.734 56.5732 33.451 56.3576 33.3754 56.1447 C 32.0891 52.5248 30.8068 48.9029 29.592 45.2589 C 29.3883 44.6478 29.1958 44.0954 28.7782 43.5903 C 28.3031 43.0156 28.217 42.2819 28.2985 41.5585 C 28.5117 39.6669 28.724 37.7743 28.9919 35.8899 C 29.4266 32.8323 30.3412 29.8898 31.2423 26.9463 C 31.5754 25.8581 31.8735 24.7553 32.2803 23.6944 C 32.9226 22.0189 33.9247 20.6054 35.7832 20.1534 C 36.5963 19.9557 37.4847 19.9559 38.3281 20.0167 C 39.6613 20.1128 41.1883 19.0934 41.3133 17.8905 C 41.4095 16.9638 41.0074 16.2737 40.2414 15.7713 C 39.4269 15.2369 39.3993 14.9702 39.5777 14.0301 C 39.7888 12.9178 39.778 11.7625 40.0073 10.6553 C 40.1731 9.8547 40.4993 9.0627 40.8889 8.3391 C 41.3179 7.5422 42.1602 7.2393 42.9979 7 C 43.4991 7 44.0003 7 44.5016 7 ZM 48.0323 32.7916 C 46.5476 34.414 46.1173 38.7589 47.246 40.3192 C 48.5831 37.952 48.5372 35.4192 48.0323 32.7916 Z" fill="#000000"/>		<path d="M 101 66.476 C 100.7195 67.1757 100.3011 67.7352 99.4746 67.9556 C 99.3659 67.4393 99.2613 66.9436 99.1487 66.4093 C 99.0081 66.505 98.8999 66.5788 98.7339 66.6916 C 99.5571 63.6826 98.8146 60.8861 97.9651 58.0877 C 97.3774 56.1514 96.8708 54.1906 96.328 52.2407 C 96.3761 52.216 96.4242 52.1916 96.4723 52.1669 C 96.2119 52.1669 95.9516 52.1669 95.6181 52.1669 C 95.5496 53.2728 95.4089 54.3862 95.4246 55.4974 C 95.4797 59.4159 95.58 63.3337 95.6793 67.2513 C 95.775 71.0327 95.6897 74.8061 95.1944 78.561 C 95.1399 78.9745 95.0065 79.4053 94.8008 79.7665 C 93.6622 81.7647 93.4744 83.9079 93.7403 86.1325 C 93.8141 86.7508 93.8931 87.3692 93.9382 87.9899 C 93.9914 88.7218 93.6663 89.2673 93.0164 89.6043 C 92.5791 89.8312 92.1264 90.0286 91.6027 90.276 C 91.6747 88.6982 91.7597 87.2252 91.8057 85.751 C 91.9093 82.4385 92.051 79.1255 92.0653 75.8123 C 92.075 73.581 91.6932 71.3814 91.0054 69.2464 C 90.9409 69.0464 90.8592 68.8517 90.7854 68.6547 C 90.7313 68.6511 90.6771 68.6474 90.6228 68.6438 C 90.5841 68.8931 90.5134 69.1421 90.5114 69.3916 C 90.4841 72.8673 90.469 76.343 90.445 79.819 C 90.4216 83.2232 90.4015 86.6277 90.3543 90.0316 C 90.3462 90.6138 90.2537 91.2045 90.1203 91.7726 C 89.9645 92.4359 89.5346 92.6958 88.8742 92.5412 C 88.2897 92.4041 87.7248 92.1843 87.2055 92.0185 C 87.5631 91.2011 87.984 90.4726 88.2031 89.6883 C 88.6184 88.202 88.3078 86.7161 87.9536 85.2569 C 87.3267 82.6744 87.0793 80.0757 87.3305 77.4161 C 87.5469 75.1235 87.1987 72.8589 86.5735 70.6537 C 85.8271 68.021 85.5517 65.3446 85.6222 62.6231 C 85.6522 61.4655 85.7021 60.308 85.7528 59.151 C 85.8011 58.052 85.4904 57.1271 84.7209 56.282 C 83.1484 54.555 82.7467 52.4548 82.8766 50.1707 C 82.984 48.2816 83.9209 46.9704 85.4084 45.9436 C 85.9669 45.5582 86.531 45.1801 87.0785 44.7795 C 87.7967 44.2539 87.8502 43.82 87.136 43.3007 C 85.6372 42.2109 85.4113 40.6902 85.5319 39.0252 C 85.5762 38.4157 85.8336 37.8968 86.2902 37.4797 C 87.2573 36.5961 88.4152 36.1177 89.6923 35.904 C 89.858 35.8763 90.0644 35.8989 90.2101 35.9764 C 91.2547 36.532 92.0844 37.2947 92.0747 38.5633 C 92.0662 39.6629 91.9129 40.7614 91.8235 41.8605 C 91.8047 42.0911 91.7636 42.3223 91.7702 42.5522 C 91.7944 43.3963 92.175 43.8339 92.9747 43.9644 C 96.116 44.4772 97.7464 46.0762 98.404 49.5035 C 98.9101 52.1414 99.2746 54.8063 99.7019 57.4595 C 100.1066 59.9721 100.5106 62.4846 100.9177 64.9968 C 100.9287 65.0647 100.9719 65.1271 101 65.1923 C 101 65.6202 101 66.0481 101 66.476 Z" fill="#000000"/>		<path d="M 72.4858 37.7439 C 72.5529 40.8789 72.6144 44.0141 72.6885 47.1489 C 72.7949 51.6569 72.9113 56.1648 73.0211 60.6726 C 73.0343 61.2168 72.8884 61.6479 72.2722 61.8012 C 71.7495 61.9312 71.5984 62.3992 71.5767 62.8392 C 71.4398 65.6133 71.1798 68.3935 71.2561 71.1637 C 71.4045 76.5505 70.6136 81.7298 68.5141 86.7113 C 68.2332 87.3775 68.1409 88.16 68.1278 88.8916 C 68.111 89.8266 68.2998 90.7636 68.3312 91.7019 C 68.3572 92.4794 68.3099 93.2626 68.2334 94.0371 C 68.2158 94.2153 67.9683 94.4796 67.7883 94.516 C 66.2926 94.817 64.786 94.9286 63.2609 94.7053 C 62.758 94.6317 62.2303 94.6246 61.7259 94.6858 C 61.0542 94.7673 60.453 94.6593 59.8736 94.3234 C 59.4277 94.0649 59.3047 93.6928 59.4728 93.2373 C 59.576 92.9576 59.7271 92.6864 59.901 92.4428 C 61.3461 90.4183 61.6541 88.2206 60.6455 85.9685 C 59.1266 82.5772 58.6198 79.0346 58.582 75.3602 C 58.5442 71.6724 58.3642 67.9859 58.2292 64.2994 C 58.1793 62.938 57.7023 62.4756 56.3422 62.325 C 55.8496 62.2705 55.363 62.1618 54.8278 62.0699 C 54.9374 61.2501 55.0608 60.4827 55.1373 59.7107 C 55.2178 58.899 55.0347 58.1573 54.4242 57.561 C 53.6154 58.3086 53.6858 58.7563 54.7436 59.2843 C 54.3066 59.629 53.8952 59.9535 53.4071 60.3383 C 53.1944 59.8747 52.9359 59.4777 52.8258 59.0432 C 52.2468 56.7612 51.7434 54.463 51.9417 52.0834 C 52.0615 50.646 52.2284 49.2125 52.3498 47.7752 C 52.5012 45.9826 52.5914 44.1843 52.774 42.3952 C 53.007 40.1106 53.3025 37.8323 53.5775 35.5521 C 53.8012 33.6964 54.0374 31.8423 54.2621 29.9867 C 54.3934 28.902 54.9157 28.0262 55.7528 27.3566 C 57.0493 26.3195 58.3683 25.311 59.9809 24.7755 C 60.3485 24.6535 60.6992 24.4563 61.0269 24.2461 C 61.4378 23.9825 61.5076 23.59 61.2632 23.1762 C 61.1106 22.9176 60.9161 22.6801 60.7186 22.4519 C 59.2962 20.8083 58.9706 18.8194 59.1697 16.7854 C 59.3632 14.807 61.0353 13.4471 63.412 12.9979 C 65.437 12.6151 66.5427 13.2645 67.2832 15.1914 C 67.9047 16.8081 67.8504 18.4743 67.7514 20.1488 C 67.7312 20.4888 67.6194 20.7943 67.2144 20.9254 C 66.4542 21.1713 66.1283 21.7572 66.1028 22.5197 C 66.0844 23.0685 66.0992 23.6184 66.0992 24.188 C 66.7206 24.188 67.3592 24.1415 67.9882 24.1989 C 68.9329 24.285 69.6254 24.8141 70.2157 25.5413 C 70.4811 25.8681 70.8583 26.1924 71.2491 26.3158 C 73.3463 26.9778 74.4754 28.4198 74.9096 30.5147 C 75.5991 33.8414 76.1793 37.2001 77.0763 40.4717 C 77.7976 43.1024 78.9072 45.6287 79.8699 48.1919 C 80.2951 49.324 80.7519 50.4469 81.2503 51.5488 C 81.9042 52.9947 81.9109 54.4461 81.4015 55.9161 C 81.1864 56.5373 80.9017 57.134 80.6708 57.7501 C 80.5201 58.1523 80.2551 58.3965 79.8415 58.5037 C 79.3973 58.6188 78.9571 58.7492 78.4992 58.8773 C 78.4992 58.0365 78.5187 57.237 78.4959 56.4387 C 78.3833 52.4908 77.4001 48.7293 75.9146 45.0982 C 74.9246 42.6783 73.8033 40.3117 72.7394 37.9218 C 72.706 37.8471 72.6578 37.7789 72.6164 37.7077 C 72.5729 37.7198 72.5294 37.7318 72.4858 37.7439 ZM 66.0617 72.2727 C 65.9343 69.2829 65.808 66.293 65.6754 63.3032 C 65.6688 63.1536 65.6571 62.9482 65.5628 62.8678 C 65.0492 62.4301 64.0128 62.7717 63.848 63.4317 C 63.7755 63.7223 63.7573 64.0305 63.7483 64.3315 C 63.7128 65.5068 63.6957 66.6826 63.663 67.8578 C 63.5783 70.9013 63.4568 73.9443 63.4158 76.9882 C 63.3973 78.3569 63.5581 79.727 63.5986 81.0976 C 63.6858 84.0477 63.4008 87.0159 64.0463 89.9369 C 64.082 90.0982 64.2078 90.2394 64.2917 90.3901 C 64.4205 90.2334 64.6367 90.0907 64.6651 89.9177 C 65.0102 87.8115 65.4045 85.7093 65.6354 83.5897 C 66.045 79.8313 66.1096 76.0539 66.0617 72.2727 ZM 55.7457 54.4254 C 55.9965 54.4495 56.1805 54.467 56.4064 54.4885 C 56.495 53.5362 56.579 52.6333 56.6642 51.7164 C 56.4093 51.686 56.2358 51.6653 56.0056 51.6379 C 55.9188 52.5687 55.8344 53.475 55.7457 54.4254 Z" fill="#000000"/>		<path d="M 55.7457 54.4254 C 55.8344 53.475 55.9188 52.5687 56.0056 51.6379 C 56.2358 51.6653 56.4093 51.686 56.6642 51.7164 C 56.579 52.6333 56.495 53.5362 56.4064 54.4885 C 56.1805 54.467 55.9965 54.4495 55.7457 54.4254 Z" fill="#ffffff"/>	</g></svg>