<?xml version="1.0" standalone="no"?><!-- Generator: Adobe Fireworks CS6, Export SVG Extension by Aaron Beall (http://fireworks.abeall.com) . Version: 0.6.1  --><!DOCTYPE svg PUBLIC "-//W3C//DTD SVG 1.1//EN" "http://www.w3.org/Graphics/SVG/1.1/DTD/svg11.dtd"><svg id="technology" viewBox="0 0 261 262" style="background-color:#ffffff00" version="1.1"	xmlns="http://www.w3.org/2000/svg" xmlns:xlink="http://www.w3.org/1999/xlink" xml:space="preserve"	x="0px" y="0px" width="100px" height="100px">	<g id="Layer%203">		<path d="M 19.4785 171.6309 C 35.6318 191.5645 55.6631 197.1084 78.9473 193.2617 C 117.2041 186.9365 145.9063 165.3838 169.3779 135.9707 C 182.2832 119.8008 191.3398 101.5801 195.0352 80.9063 C 199.0068 58.7036 195.4063 38.8984 177.4434 22.6504 C 180.0576 21.5547 182.3145 20.6982 184.4307 22.187 C 213.7988 42.8657 241.4453 65.0815 243.7998 104.8691 C 246.4424 149.4912 228.3945 185.4805 194.4209 213.2334 C 163.3398 238.624 127.8447 249.5693 87.5947 240.3203 C 79.8301 238.5342 72.6816 235.4854 66.23 230.7793 C 49.2197 218.3701 34.8403 203.4365 23.5684 185.6572 C 21.3037 182.0869 18.0845 178.3369 19.4785 171.6309 Z" fill="#010102"/>		<path d="M 133.6357 17.7168 C 145.5488 17.5527 156.8232 19.8491 167.2432 25.7368 C 172.8408 28.9009 177.5547 33.0547 180.7754 38.6377 C 187.6855 50.6147 186.3135 52.7236 172.7881 54.2271 C 138.5166 58.0371 109.8389 73.1201 86.7979 98.6406 C 82.6055 103.2832 80.2695 104.6035 75.4546 99.333 C 66.311 89.3252 56.4927 79.9238 46.7451 70.4878 C 43.603 67.4448 42.3384 65.4365 45.8965 61.4414 C 69.3599 35.0913 97.8271 19.0728 133.6357 17.7168 Z" fill="#010102"/>		<path d="M 52.2236 182.2129 C 31.6519 178.9355 19.5161 163.6123 18.0977 139.8682 C 16.7568 117.4189 23.1548 97.0791 34.1694 77.7998 C 37.1606 72.5645 39.1021 73.1353 42.8208 77.0352 C 52.394 87.0771 62.3545 96.751 72.1816 106.5488 C 74.6367 108.9961 77.0801 110.7266 74.1167 115.0732 C 60.3564 135.2568 53.5669 157.8984 52.2236 182.2129 Z" fill="#010102"/>		<path id="band" d="M 227.0674 131.6426 C 227.9531 135.9404 226.1436 138.3516 221.5742 140.5176 C 216.5186 142.915 214.5439 139.8232 212.1641 137.1943 C 208.6094 133.2666 204.1094 130.2979 201.5293 125.3193 C 198.6533 119.7695 200.3359 115.2148 204.2891 111.8906 C 208.21 108.5928 212.7822 109.8779 215.9326 113.8867 C 220.1738 119.2813 228.5342 122.1123 227.0674 131.6426 Z" fill="#e4e3e3"/>		<path id="circle3" d="M 156.1758 175.6328 C 155.9795 177.1787 154.7451 177.7139 153.5381 177.709 C 152.2988 177.7021 151.0195 176.9971 151.0381 175.502 C 151.0596 173.6279 152.3428 172.7764 154.085 173.0313 C 155.3965 173.2227 156.2393 174.1504 156.1758 175.6328 Z" fill="#bbbab9"/>		<path id="circle1" d="M 188.8271 137.874 C 188.9004 139.8145 188.5986 140.8926 187.1826 141.25 C 185.7607 141.6074 184.8701 140.9023 184.5068 139.624 C 184.0234 137.9121 184.7686 136.5293 186.4619 136.3984 C 187.3105 136.335 188.2539 137.4902 188.8271 137.874 Z" fill="#c4c3c3"/>		<path id="circle2" d="M 177.3037 154.5752 C 176.9287 156.498 175.835 156.7588 174.5049 156.5586 C 173.0332 156.3369 172.2578 155.3096 172.707 154.0127 C 172.9219 153.3896 174.1787 152.834 174.9971 152.7852 C 176.2871 152.708 177.3486 153.3398 177.3037 154.5752 Z" fill="#f1f1f2"/>		<path id="band2" d="M 208.3584 114.8906 C 213.0645 114.9395 224.1436 127.6934 223.5068 131.5869 C 223.1611 133.7148 222.6436 135.9209 220.2217 136.7949 C 217.8594 137.6475 216.9229 135.5947 215.6924 134.3789 C 212.3545 131.083 208.5313 128.0615 206.0459 124.1934 C 203.8408 120.7598 203.54 116.4648 208.3584 114.8906 Z" fill="#0e0f0e"/>	</g></svg>